<svg width="20" height="20" viewBox="0 0 20 20" fill="none" xmlns="http://www.w3.org/2000/svg">
<path d="M2.91602 15.4173C2.91602 12.2076 2.91602 4.58398 2.91602 4.58398C2.91602 3.20327 4.0353 2.08398 5.41602 2.08398H14.5827V12.9173C14.5827 12.9173 7.59627 12.9173 5.41602 12.9173C4.04102 12.9173 2.91602 14.0357 2.91602 15.4173Z" stroke="#114B5E" stroke-linejoin="round"/>
<path d="M14.5827 12.916C14.5827 12.916 5.89672 12.916 5.41602 12.916C4.0353 12.916 2.91602 14.0353 2.91602 15.416C2.91602 16.7967 4.0353 17.916 5.41602 17.916C6.33647 17.916 10.7809 17.916 17.0827 17.916V2.91602" stroke="#114B5E" stroke-linecap="round" stroke-linejoin="round"/>
<path d="M5.83398 15.416H14.1673" stroke="#114B5E" stroke-linecap="round" stroke-linejoin="round"/>
</svg>
