<svg width="20" height="20" viewBox="0 0 20 20" fill="none" xmlns="http://www.w3.org/2000/svg">
<path fill-rule="evenodd" clip-rule="evenodd" d="M10.0007 9.99935L14.1673 5.83268C14.1673 3.53149 12.3018 1.66602 10.0007 1.66602C7.69948 1.66602 5.83398 3.53149 5.83398 5.83268L10.0007 9.99935Z" stroke="#114B5E" stroke-linecap="round" stroke-linejoin="round"/>
<path fill-rule="evenodd" clip-rule="evenodd" d="M5.83268 14.1673L9.99935 10.0007L5.83268 5.83398C3.53149 5.83398 1.66602 7.69948 1.66602 10.0007C1.66602 12.3018 3.53149 14.1673 5.83268 14.1673Z" stroke="#114B5E" stroke-linecap="round" stroke-linejoin="round"/>
<path fill-rule="evenodd" clip-rule="evenodd" d="M14.1667 14.1673C16.4678 14.1673 18.3333 12.3018 18.3333 10.0007C18.3333 7.69948 16.4678 5.83398 14.1667 5.83398L10 10.0007L14.1667 14.1673Z" stroke="#114B5E" stroke-linecap="round" stroke-linejoin="round"/>
<path fill-rule="evenodd" clip-rule="evenodd" d="M10.0007 18.3333C12.3018 18.3333 14.1673 16.4678 14.1673 14.1667L10.0007 10L5.83398 14.1667C5.83398 16.4678 7.69948 18.3333 10.0007 18.3333Z" stroke="#114B5E" stroke-linecap="round" stroke-linejoin="round"/>
</svg>
