<svg width="20" height="20" viewBox="0 0 20 20" fill="none" xmlns="http://www.w3.org/2000/svg">
<g id="tagIcon">
<rect width="20" height="20" rx="10" fill="url(#paint0_linear_3602_61102)"/>
<path id="Vector" d="M13.882 4.9375H6.12038C5.46925 4.9375 4.94141 5.46534 4.94141 6.11648V13.8781C4.94141 14.5292 5.46925 15.057 6.12038 15.057H13.882C14.5331 15.057 15.0609 14.5292 15.0609 13.8781V6.11648C15.0609 5.46534 14.5331 4.9375 13.882 4.9375ZM10.9532 12.4783H10.2424L10.0765 9.47264C10.0607 9.21539 10.0483 8.8995 10.0393 8.52491C9.90164 8.83857 9.78656 9.08227 9.69407 9.25601L7.97462 12.4783H7.2909L6.98628 7.51626H7.65984L7.77493 9.97019C7.7817 10.0875 7.79297 10.4057 7.80878 10.9247C7.81328 11.0691 7.81555 11.1706 7.81555 11.2293C7.81555 11.2677 7.81438 11.3794 7.81216 11.5644C8.08744 11.0003 8.28603 10.6031 8.40788 10.373L9.91746 7.51626H10.6012L10.767 10.417C10.7851 10.7487 10.7975 11.1481 10.8043 11.6152C10.8449 11.5001 10.9171 11.3286 11.0209 11.1007C11.1856 10.7329 11.3074 10.47 11.3864 10.312L12.8012 7.51626H13.4782L10.9532 12.4783Z" fill="#397DFF"/>
</g>
<defs>
<linearGradient id="paint0_linear_3602_61102" x1="10" y1="0" x2="10" y2="20" gradientUnits="userSpaceOnUse">
<stop stop-color="#E9F0FE"/>
<stop offset="1" stop-color="#DBE7FF"/>
</linearGradient>
</defs>
</svg>
