<svg width="20" height="20" viewBox="0 0 20 20" fill="none" xmlns="http://www.w3.org/2000/svg">
<g id="tagIcon">
<rect width="20" height="20" rx="10" fill="url(#paint0_linear_3602_61103)"/>
<path id="Vector" d="M14.0521 4.71875H5.94951C5.26978 4.71875 4.71875 5.26978 4.71875 5.94953V14.0521C4.71875 14.7318 5.26978 15.2828 5.94951 15.2828H14.0521C14.7318 15.2828 15.2828 14.7318 15.2828 14.0521V5.94953C15.2828 5.26978 14.7318 4.71875 14.0521 4.71875ZM11.8123 12.5908H11.0597L10.2188 11.0749C10.1363 10.9265 10.0409 10.7357 9.93256 10.5025C9.80536 10.6745 9.64988 10.8571 9.46615 11.0502L8.02097 12.5908H7.10228L9.57567 9.97252L8.1093 7.41079H8.87252L9.54034 8.58389C9.717 8.89252 9.81826 9.07272 9.84422 9.12451C9.90544 9.23994 9.97258 9.37774 10.0456 9.53791C10.2199 9.30239 10.4896 8.9926 10.8548 8.60862L11.9925 7.41079H12.8971L10.3919 10.0856L11.8123 12.5908Z" fill="#01A408"/>
</g>
<defs>
<linearGradient id="paint0_linear_3602_61103" x1="10" y1="0" x2="10" y2="20" gradientUnits="userSpaceOnUse">
<stop stop-color="#E5F7E6"/>
<stop offset="1" stop-color="#CEF0CF"/>
</linearGradient>
</defs>
</svg>
