<svg width="20" height="20" viewBox="0 0 20 20" fill="none" xmlns="http://www.w3.org/2000/svg">
<g id="tagIcon">
<rect width="20" height="20" rx="10" fill="url(#paint0_linear_3602_61104)"/>
<path id="Vector" d="M14.2805 15.5586H5.71559C5.04277 15.5586 4.49219 15.008 4.49219 14.3352V5.77028C4.49219 5.09746 5.04277 4.54688 5.71559 4.54688H14.2805C14.9533 4.54688 15.5039 5.09746 15.5039 5.77028V14.3352C15.5039 15.008 14.9533 15.5586 14.2805 15.5586ZM9.06315 10.777H9.78359C10.3645 10.796 10.8484 10.6366 11.2358 10.2983C11.6226 9.96024 11.8161 9.51867 11.8161 8.97414C11.8161 8.43621 11.6509 8.023 11.3197 7.73367C10.9891 7.44461 10.5233 7.2998 9.92372 7.2998H8.34629V12.8525H9.06315V10.777ZM9.06315 7.93078H9.79461C10.6403 7.93078 11.0634 8.28811 11.0634 9.00277C11.0634 9.37056 10.95 9.65328 10.7229 9.85012C10.4961 10.0475 10.164 10.1461 9.72633 10.1461H9.06315V7.93078Z" fill="#F34E19"/>
</g>
<defs>
<linearGradient id="paint0_linear_3602_61104" x1="10" y1="0" x2="10" y2="20" gradientUnits="userSpaceOnUse">
<stop stop-color="#FAE6E1"/>
<stop offset="1" stop-color="#FFE1D8"/>
</linearGradient>
</defs>
</svg>
