<svg width="20" height="20" viewBox="0 0 20 20" fill="none" xmlns="http://www.w3.org/2000/svg">
<g id="tagIcon">
<rect width="20" height="20" rx="10" fill="url(#paint0_linear_3602_61099)"/>
<g id="Group 4349">
<g id="Subtract">
<path fill-rule="evenodd" clip-rule="evenodd" d="M6.50716 5.80859H13.4928C13.8786 5.80859 14.1914 6.12135 14.1914 6.50716V13.4928C14.1914 13.8786 13.8786 14.1914 13.4928 14.1914H6.50716C6.12135 14.1914 5.80859 13.8786 5.80859 13.4928V6.50716C5.80859 6.12135 6.12135 5.80859 6.50716 5.80859ZM9.57984 7.4656C8.75417 6.9889 7.72208 7.58478 7.72208 8.53818V11.4638C7.72208 12.4172 8.75416 13.0131 9.57983 12.5364L12.1135 11.0736C12.9392 10.5969 12.9392 9.4051 12.1135 8.9284L9.57984 7.4656Z" fill="#5F2BF2"/>
<path d="M9.57984 7.4656L9.83526 7.02319L9.83526 7.02319L9.57984 7.4656ZM9.57983 12.5364L9.32441 12.0939L9.32441 12.0939L9.57983 12.5364ZM12.1135 11.0736L12.3689 11.516L12.3689 11.516L12.1135 11.0736ZM12.1135 8.9284L11.8581 9.37081L12.1135 8.9284ZM13.4928 5.29774H6.50716V6.31944H13.4928V5.29774ZM14.7023 6.50716C14.7023 5.83922 14.1608 5.29774 13.4928 5.29774V6.31944C13.5965 6.31944 13.6806 6.40349 13.6806 6.50716H14.7023ZM14.7023 13.4928V6.50716H13.6806V13.4928H14.7023ZM13.4928 14.7023C14.1608 14.7023 14.7023 14.1608 14.7023 13.4928H13.6806C13.6806 13.5965 13.5965 13.6806 13.4928 13.6806V14.7023ZM6.50716 14.7023H13.4928V13.6806H6.50716V14.7023ZM5.29774 13.4928C5.29774 14.1608 5.83922 14.7023 6.50716 14.7023V13.6806C6.40349 13.6806 6.31944 13.5965 6.31944 13.4928H5.29774ZM5.29774 6.50716V13.4928H6.31944V6.50716H5.29774ZM6.50716 5.29774C5.83922 5.29774 5.29774 5.83922 5.29774 6.50716H6.31944C6.31944 6.40349 6.40349 6.31944 6.50716 6.31944V5.29774ZM8.23293 8.53818C8.23293 7.97803 8.83931 7.62793 9.32441 7.90801L9.83526 7.02319C8.66902 6.34986 7.21123 7.19152 7.21123 8.53818H8.23293ZM8.23293 11.4638V8.53818H7.21123V11.4638H8.23293ZM9.32441 12.0939C8.83931 12.374 8.23293 12.0239 8.23293 11.4638H7.21123C7.21123 12.8104 8.66902 13.6521 9.83526 12.9788L9.32441 12.0939ZM11.8581 10.6311L9.32441 12.0939L9.83526 12.9788L12.3689 11.516L11.8581 10.6311ZM11.8581 9.37081C12.3432 9.65088 12.3432 10.3511 11.8581 10.6311L12.3689 11.516C13.5352 10.8426 13.5352 9.15932 12.3689 8.48599L11.8581 9.37081ZM9.32441 7.90801L11.8581 9.37081L12.3689 8.48599L9.83526 7.02319L9.32441 7.90801Z" fill="#5F2BF2"/>
</g>
</g>
</g>
<defs>
<linearGradient id="paint0_linear_3602_61099" x1="10" y1="0" x2="10" y2="20" gradientUnits="userSpaceOnUse">
<stop stop-color="#F4F0FF"/>
<stop offset="1" stop-color="#E4DAFF"/>
</linearGradient>
</defs>
</svg>
