<svg width="20" height="20" viewBox="0 0 20 20" fill="none" xmlns="http://www.w3.org/2000/svg">
<g id="tagIcon">
<rect width="20" height="20" rx="10" fill="url(#paint0_linear_3602_61101)"/>
<g id="Group 4350">
<path id="Vector" d="M9.80512 9.80469C9.80512 9.80469 9.71368 10.1514 9.5179 10.5076C9.32214 10.8639 9.14844 11.0662 9.14844 11.0662C9.14844 11.0662 9.6713 10.9368 9.87418 10.8947C10.1073 10.8463 10.419 10.8184 10.5372 10.8122C10.5372 10.8122 10.2861 10.531 10.1834 10.3941C10.0801 10.2565 9.80512 9.80469 9.80512 9.80469Z" fill="#FF3535"/>
<path id="Vector_2" d="M7.34699 12.6086C7.47014 12.679 7.72965 12.5426 7.89239 12.3535C8.02426 12.2003 8.30584 11.7773 8.30584 11.7773C8.30584 11.7773 7.78242 11.9313 7.54491 12.1556C7.30741 12.3799 7.27363 12.5667 7.34699 12.6086Z" fill="#FF3535"/>
<path id="Vector_3" d="M9.95316 8.19993C9.96003 8.0152 10.0755 7.46687 9.78813 7.39062C9.78813 7.39062 9.48318 7.40235 9.50503 7.88349C9.52003 8.21407 9.75295 8.85677 9.75295 8.85677C9.75295 8.85677 9.94632 8.38466 9.95316 8.19993Z" fill="#FF3535"/>
<path id="Vector_4" d="M11.9426 11.1326C11.6655 11.1062 11.3867 11.0938 11.3867 11.0938C11.3867 11.0938 11.9336 11.6151 12.1303 11.766C12.3062 11.9009 12.6112 11.8598 12.6757 11.6722C12.7898 11.3403 12.2197 11.159 11.9426 11.1326Z" fill="#FF3535"/>
<path id="Vector_5" d="M13.6085 5.29297H6.38952C5.78391 5.29297 5.29297 5.78391 5.29297 6.38954V13.6085C5.29297 14.2142 5.78391 14.7051 6.38952 14.7051H13.6085C14.2141 14.7051 14.7051 14.2142 14.7051 13.6085V6.38954C14.7051 5.78391 14.2141 5.29297 13.6085 5.29297ZM12.2284 12.2584C11.3663 12.0649 10.8334 11.1424 10.8334 11.1424C10.8334 11.1424 10.5087 11.15 9.97206 11.2336C9.46539 11.3125 8.87545 11.5534 8.87545 11.5534C8.87545 11.5534 8.25227 12.751 7.65409 12.9445C7.0559 13.1381 6.59071 12.6242 7.12629 12.0121C7.58811 11.4843 8.58825 11.2814 8.58825 11.2814C8.58825 11.2814 8.99121 10.7893 9.20232 10.3715C9.41345 9.95361 9.60698 9.40821 9.60698 9.40821C9.60698 9.40821 9.20232 8.47575 9.16712 7.94794C9.13195 7.42014 9.44862 7.05066 9.76531 7.01548C10.1675 6.97079 10.6349 7.34975 9.95382 9.30266C9.95382 9.30266 10.1524 9.76009 10.4339 10.0768C10.7154 10.3935 11.0438 10.7219 11.0438 10.7219C11.0438 10.7219 12.0459 10.6127 12.7116 10.9527C13.4424 11.3259 13.0905 12.4519 12.2284 12.2584Z" fill="#FF3535"/>
</g>
</g>
<defs>
<linearGradient id="paint0_linear_3602_61101" x1="10" y1="0" x2="10" y2="20" gradientUnits="userSpaceOnUse">
<stop stop-color="#FEEAE8"/>
<stop offset="1" stop-color="#FFE1DD"/>
</linearGradient>
</defs>
</svg>
