<svg width="20" height="20" viewBox="0 0 20 20" fill="none" xmlns="http://www.w3.org/2000/svg">
<path d="M9.14634 9C10.884 9 12.2927 7.65686 12.2927 6C12.2907 6.10777 14 3 14 3C14 3 10.0926 3 9.14634 3C7.40866 3 6 4.34315 6 6C6 7.65686 7.40866 9 9.14634 9Z" stroke="#114B5E" stroke-linecap="round" stroke-linejoin="round"/>
<path d="M3 16.4857V17H16V16.4857C16 14.5655 16 13.6055 15.6851 12.872C15.4082 12.2269 14.9662 11.7024 14.4226 11.3737C13.8047 11 12.9957 11 11.3778 11H7.62222C6.0043 11 5.19534 11 4.57737 11.3737C4.03378 11.7024 3.59184 12.2269 3.31487 12.872C3 13.6055 3 14.5655 3 16.4857Z" stroke="#114B5E" stroke-linecap="round" stroke-linejoin="round"/>
<circle cx="7.5" cy="5.5" r="0.5" fill="#114B5E"/>
<circle cx="9.5" cy="5.5" r="0.5" fill="#114B5E"/>
</svg>
